/* XPM */
static char *_625eaddc78e48acf99ef6eee28b13ffe2YpIXm2Pah8J2yW[] = {
/* columns rows colors chars-per-pixel */
"40 40 45 1 ",
"  c #0C102F",
". c #0D1130",
"X c #0F1337",
"o c #0F1437",
"O c #0F143B",
"+ c #10153B",
"@ c #11163F",
"# c #121743",
"$ c #121843",
"% c #121844",
"& c #131A48",
"* c #141A48",
"= c #151B4C",
"- c #151C4F",
"; c #161C50",
": c #171E54",
"> c #171F58",
", c #181F58",
"< c #182058",
"1 c #19215C",
"2 c #1A2260",
"3 c #1B2364",
"4 c #1B2464",
"5 c #1C2465",
"6 c #1C2568",
"7 c #1D266C",
"8 c #1E2770",
"9 c #1F2871",
"0 c #1F2974",
"q c #202975",
"w c #202A79",
"e c #212B7C",
"r c #222C7D",
"t c #232D81",
"y c #232F84",
"u c #242F85",
"i c #243085",
"p c #253089",
"a c #27338E",
"s c #273392",
"d c #273491",
"f c #273496",
"g c #283491",
"h c #283595",
"j c #293597",
/* pixels */
" ...XO@#%=;:,124679qwrtupadhhhhhhhhhhhhh",
". ..X+@$*=;:,123679qwrtupadhhhhhhhhhhhhh",
"  ..O@@$*==:,1236790wrtupaghhhhhhhhhhhhh",
"....o+@%&*;:,124679qwrtupadhhhhhhhhhhhhh",
"....X+@$%=;;,123678qwrtupashhhhhhhhhhhhh",
"....o+#%%=-:,125679qwrtupaghhhhhhhhhhhhh",
"....X+#%&*;:,124679qwrtupashhhhhhhhhhhhh",
"....X+@%%=-:,123679qwrtupaghhhhhhhhhhhhh",
"....o@@$*=-:,1256790wrtupashhhhhhhhhhhhh",
"....X+@$%=-:<123679qwrtupashhhhhhhhhhhhh",
" ...X+@%%*-:,123679qwrtupadhhhhhhhhhhhhh",
"....o+@$%=;:<123679qwrtupashhhhhhhhhhhhh",
".. .o+@#**;:,1246790wrtypashhhhhhhhhhhhh",
"....++#$&=;:,1236790wrtypaghhhhhhfhhhhhh",
"....X+#$*=;:,1236780wrtupashhhhhhhhhhhhh",
"....o+#%&=;:,1236790wrtupashhhhhhhhhhhhh",
"....o@@%&*;:,1246790wrtupashhhhhhhhhhhhh",
"....o+@$%*;;,1246790wrtypashhhhhhhhhhhhh",
"....o+##%*;::1246790wrtupashhhhhhhhhhhhh",
"....X@@$&*-:,123679qwrtipashhhhhhhhhhhhh",
"....++@#%=;:,123679qwrtupashhhhhhhhhhhhh",
"....X+@$%*;:>1236790wrtupashhhhhhhhhhhhh",
" ...X+@$&=;:,1246790wrtupaghhhhhhhhhhhhh",
"....o+#%&=;:,123679qwrtupadhhhhhhhhhhhhh",
" ...X+@%%*;::123679qwrtupashhhhhhhhhhhhh",
"....X+@$&*-:,1246790wrtupashhhhhhhhhhhhh",
"....o@@%&=-:,<23679qwrtupashhhhhhhhhhhhh",
"....X+@#&*;:,1236790wrtupashhhhhhhhhhhhh",
"....O+@$%=-;<123679qwrtipashhhhhhhhhhhhh",
". ..X@@$%=-:,124678qwrtupashhhhhhhhhhhhh",
" ...o+@$%*-::123679qwrtupashhhhhhhhhhhhh",
"....X+@$*=;:,124679qwrtupashhhhhhhhhhhhh",
"....X+@#%=;:,125679qwetupashhhhhhhhhhhhh",
" ...X+@%**;:,1246790wrtypashhhhhhhhhhhhh",
"....X+@$%=;::123679qwrtupaghhhhhhhhhhhhh",
".. .X+@$**;:,1236780wrtupaghhhhhhhhhhhhh",
"....X@@$*=;:,1246790wrtupaghhhhhhhhhhhhh",
" . .X+##*=;:,125679qwrtupashhhhhhhhhhhhh",
"....X+@%%=;:,<236780wrtupadhhhhhhfhhhhhh",
"....o+@#&=;:,123679qwrtupaghhhhhhhhhhhhh"
};
